<svg xmlns="http://www.w3.org/2000/svg" viewBox="0 0 309 87.56"><defs><style>.logo-cls-1{fill:#577742}</style></defs><path d="M57.56 41.08h-.2C53.21 24.91 45.59 20.2 38.04 18.91v67.38c-6.69 0-12.12.29-18.53 1.27V18.92C12 20.22 4.33 24.93.19 41.08h-.2V17.63h57.56v23.45ZM91.42 70.03V39.94c0-3.73-.89-7.37-5.32-7.37-7.1 0-12.03 11.62-12.03 28.64 0 11.52 2.76 18.68 8.87 18.68 4.93 0 7.49-5.09 8.48-9.86m17.55 2.9c0 7.05.69 9.34 3.94 10.48-2.27 2.8-6.7 4.15-10.84 4.15-9.92 0-10.6-5.72-10.64-14.33-2.22 7.11-7.08 14.33-17.35 14.33-11.53 0-19.52-9.23-19.52-24.07 0-19.82 14.69-31.96 29.87-31.96 4.64 0 7.97 1.12 10.67 3.16 4.63-.4 9.53-1.52 13.87-3.16v41.4ZM116.26 76.77c0-4.98 3.75-8.09 7.49-8.09s6.8 3.01 6.8 7.57c0 3.01-1.38 6.43-5.03 8.92 1.77.52 3.65.73 5.32.73 6.7 0 12.12-3.42 12.12-10.06 0-12.35-26.02-11.1-26.02-28.12 0-10.9 10.05-16.19 22.77-16.19 10.84 0 20.7 2.8 20.7 10.79 0 4.98-3.75 8.09-7.49 8.09s-6.8-3.01-6.8-7.57c0-3.01 1.38-6.43 5.03-8.92-1.58-.42-3.45-.73-5.42-.73-5.62 0-10.94 2.7-10.94 8.09 0 11.73 27.3 11.73 27.3 29.26 0 11.31-12.42 17.02-25.13 17.02-10.84 0-20.7-2.8-20.7-10.79M168.21 72.1V33.4h-3.75v-1.04c7.39 0 17.25-8.09 20.9-16.6h.4v16.6h8.38v1.04h-8.38v39.53c0 7.05 1.97 8.4 4.83 8.92-2.86 4.36-7.59 5.71-11.73 5.71-10.35 0-10.65-7.57-10.65-15.46" class="logo-cls-1"/><path d="M228.44 59.55c0-16.29-2.07-27.19-8.87-27.19s-8.87 10.9-8.87 27.19 2.07 27.19 8.87 27.19 8.87-11 8.87-27.19m-37.26 0c0-16.81 11.14-28.01 28.39-28.01s28.39 11.21 28.39 28.01-11.14 28.01-28.39 28.01-28.39-11.21-28.39-28.01M305.06 72.93c0 7.06.69 9.34 3.94 10.48-2.27 2.8-6.7 4.15-10.84 4.15-10.35 0-10.65-6.23-10.65-15.46v-.84c-5.4 11.76-13.08 16.3-20.3 16.3-9.56 0-13.8-7.37-13.8-15.88V34.84c5.62 0 12.03-1.24 17.55-3.32v39.64c0 4.77 2.66 7.37 6.21 7.37s7.95-3.06 10.35-8.74V34.75c5.62 0 12.03-1.25 17.55-3.32v41.5ZM22.96 5.57c0 .35-.04.61-.11.81a.7.7 0 0 1-.38.41c-.18.08-.43.12-.76.12h-1.2V1.12h1.2c.32 0 .57.04.76.12a.7.7 0 0 1 .38.41c.07.19.11.47.11.82v3.11ZM21.72.14h-2.23v7.74h2.23c.52 0 .95-.08 1.29-.24.33-.16.58-.4.74-.74.16-.34.24-.77.24-1.3V2.43c0-.8-.18-1.38-.53-1.74-.36-.36-.93-.55-1.72-.55M32.97 5.16l.45-1.9c.17-.76.31-1.39.41-1.9h.04c.1.55.23 1.19.41 1.9l.46 1.9h-1.77Zm.29-5.02-1.99 7.74h1.05l.42-1.77h2.23l.43 1.77h1.05L34.46.14h-1.19ZM46.65.14l-.99 2.52c-.13.37-.26.73-.39 1.08h-.03c-.12-.35-.25-.71-.4-1.08l-1-2.52h-1.09l1.98 4.74v3h1.02V4.91L47.73.15h-1.09ZM55.17.14v7.74h3.64V6.9h-2.62V.14h-1.02zM66.43.14h1.02v7.74h-1.02zM79.02 5.71c0 .35-.04.62-.11.81-.07.19-.2.33-.37.41-.17.08-.42.12-.74.12s-.57-.04-.75-.12a.683.683 0 0 1-.37-.41c-.07-.19-.11-.46-.11-.81V2.32c0-.35.04-.62.11-.81.07-.2.19-.33.37-.42.17-.08.41-.12.73-.12s.56.04.74.12c.18.08.3.22.38.42.08.19.12.47.12.81v.31h1.01v-.31c0-.83-.18-1.43-.53-1.79-.37-.35-.94-.53-1.73-.53-.53 0-.95.08-1.28.24-.33.16-.57.41-.72.75-.15.34-.23.78-.23 1.34v3.39c0 .82.17 1.42.53 1.78.35.36.92.54 1.72.54.53 0 .96-.08 1.29-.24.33-.16.57-.4.72-.74.15-.33.23-.78.23-1.33v-.4h-1.01v.4ZM87.92.14h1.02v7.74h-1.02zM100.6 5.71c0 .35-.04.62-.12.81-.08.19-.21.32-.38.4-.18.08-.44.12-.78.12s-.6-.04-.78-.12a.71.71 0 0 1-.38-.4c-.07-.19-.11-.46-.11-.81V2.32c0-.35.04-.63.11-.82a.7.7 0 0 1 .38-.41c.18-.08.44-.12.78-.12s.6.04.78.12c.18.08.31.22.39.41.08.19.12.47.12.82v3.39ZM99.32 0c-.55 0-1 .08-1.33.23-.33.15-.58.4-.73.74s-.23.79-.23 1.35v3.39c0 .83.18 1.43.53 1.78.35.35.94.53 1.76.53.55 0 1-.08 1.33-.23.33-.15.58-.4.73-.74.15-.34.23-.79.23-1.34V2.32c0-.83-.18-1.43-.53-1.78-.35-.36-.94-.54-1.76-.54M113.11 5.69c0 .35-.04.63-.11.82-.07.19-.2.32-.38.4-.18.08-.43.11-.75.11s-.57-.04-.75-.11a.696.696 0 0 1-.37-.4c-.07-.19-.11-.47-.11-.82V.14h-1.02v5.55c0 .82.18 1.42.53 1.78.35.36.92.54 1.72.54.54 0 .97-.08 1.3-.24.33-.16.57-.41.73-.75.15-.34.23-.78.23-1.34V.14h-1.02v5.55ZM125.72 4.09c-.21-.18-.52-.34-.92-.47l-1-.33c-.22-.07-.38-.15-.48-.24l-.22-.35c-.04-.15-.06-.35-.06-.61 0-.29.03-.52.09-.68l.33-.35c.16-.07.38-.11.67-.11s.51.04.66.12c.15.08.26.21.33.39.07.18.1.43.1.76v.2h.97v-.2c0-.54-.07-.97-.2-1.29-.13-.32-.35-.55-.64-.69-.3-.14-.7-.22-1.21-.22s-.93.07-1.23.2c-.3.14-.51.36-.64.66-.13.3-.19.71-.19 1.23 0 .41.04.75.11 1.02s.21.49.4.67c.19.18.46.32.79.43l1.11.38c.24.08.42.17.53.26l.24.37c.04.15.06.37.06.64 0 .32-.03.56-.09.73l-.35.38c-.17.08-.41.12-.72.12s-.55-.04-.71-.11a.655.655 0 0 1-.36-.37c-.07-.17-.11-.42-.11-.75v-.32H122v.32c0 .54.08.96.22 1.28.14.31.36.54.67.68.31.14.73.21 1.26.21s.95-.07 1.26-.21c.31-.14.53-.37.67-.68.14-.31.21-.74.21-1.28 0-.45-.04-.81-.13-1.08-.08-.27-.23-.5-.45-.68M142.87.14v7.74h1.02V4.44h2.4v-.96h-2.4V1.12h2.6V.14h-3.62zM155.28 1.11h1.07c.34 0 .59.04.76.11.17.08.29.2.36.38s.1.45.1.8-.03.61-.1.79c-.06.18-.18.32-.35.39-.17.08-.41.12-.74.12h-1.11V1.11Zm2.37 3.32c.32-.15.55-.39.69-.72.14-.33.22-.76.22-1.31s-.07-1-.21-1.33-.37-.56-.69-.71c-.32-.15-.76-.22-1.32-.22h-2.07v7.74h1.01V4.66h1.1l1.51 3.22h1.14l-1.62-3.35.25-.1ZM166.64.14v7.74h3.65v-.96h-2.64V4.39h2.33v-.95h-2.33V1.11h2.54V.14h-3.55zM181.55 4.09c-.21-.18-.52-.34-.92-.47l-1-.33c-.22-.07-.38-.15-.48-.24l-.22-.35c-.04-.15-.06-.35-.06-.61 0-.29.03-.52.1-.68l.33-.35c.16-.07.38-.11.67-.11s.51.04.66.12c.15.08.26.21.33.39s.1.43.1.76v.2h.97v-.2c0-.54-.07-.97-.2-1.29-.13-.32-.35-.55-.65-.69-.3-.14-.7-.22-1.21-.22s-.93.07-1.23.2c-.3.14-.52.36-.65.66-.13.3-.19.71-.19 1.23 0 .41.04.75.11 1.02s.21.49.4.67c.19.18.46.32.79.43l1.11.38c.24.08.41.17.53.26l.24.37c.04.15.06.37.06.64 0 .32-.03.56-.09.73l-.35.38c-.17.08-.41.12-.72.12s-.55-.04-.71-.11a.655.655 0 0 1-.36-.37c-.07-.17-.1-.42-.1-.75v-.32h-.98v.32c0 .54.08.96.22 1.28.14.31.36.54.67.68.31.14.73.21 1.26.21s.95-.07 1.26-.21c.31-.14.53-.37.67-.68.14-.31.21-.74.21-1.28 0-.45-.04-.81-.13-1.08-.08-.27-.23-.5-.45-.68M193.36.14V3.4h-2.37V.14h-1.02v7.74h1.02V4.39h2.37v3.49h1.02V.14h-1.02zM214.75 4.09c-.21-.18-.52-.34-.92-.47l-1-.33c-.22-.07-.38-.15-.48-.24l-.22-.35c-.04-.15-.06-.35-.06-.61 0-.29.03-.52.1-.68l.33-.35c.16-.07.38-.11.67-.11s.51.04.66.12c.15.08.26.21.33.39.07.18.1.43.1.76v.2h.97v-.2c0-.54-.07-.97-.2-1.29-.13-.32-.35-.55-.65-.69-.3-.14-.7-.22-1.21-.22s-.93.07-1.23.2c-.3.14-.52.36-.65.66-.13.3-.19.71-.19 1.23 0 .41.04.75.11 1.02s.21.49.4.67c.19.18.46.32.79.43l1.11.38c.24.08.41.17.53.26l.24.37c.04.15.06.37.06.64 0 .32-.03.56-.09.73l-.35.38c-.17.08-.41.12-.73.12s-.55-.04-.71-.11a.655.655 0 0 1-.36-.37c-.07-.17-.1-.42-.1-.75v-.32h-.98v.32c0 .54.08.96.22 1.28.14.31.36.54.67.68.31.14.73.21 1.26.21s.95-.07 1.26-.21c.31-.14.53-.37.67-.68.14-.31.21-.74.21-1.28 0-.45-.04-.81-.13-1.08-.08-.27-.23-.5-.45-.68M226.3 3.38c-.07.2-.18.34-.35.42-.17.08-.41.11-.74.11h-1.02V1.12h.99c.34 0 .59.04.76.11.17.08.29.21.36.41.07.19.1.49.1.87s-.03.67-.1.87m.19-3.01c-.32-.15-.76-.23-1.32-.23h-1.98v7.74h1.02V4.9h1c.55 0 .98-.08 1.3-.23.32-.15.55-.4.69-.75.14-.34.21-.81.21-1.41s-.07-1.06-.21-1.4c-.14-.34-.38-.59-.7-.74M236.16 1.11h1.07c.34 0 .59.04.76.11.17.08.29.2.36.38s.1.45.1.8-.03.61-.1.79c-.06.18-.18.32-.35.39-.17.08-.41.12-.74.12h-1.11V1.11Zm2.38 3.32c.32-.15.55-.39.69-.72.14-.33.22-.76.22-1.31s-.07-1-.21-1.33-.37-.56-.69-.71c-.32-.15-.76-.22-1.32-.22h-2.07v7.74h1.01V4.66h1.1l1.51 3.22h1.14l-1.62-3.35.25-.1ZM247.52.14v7.74h3.66v-.96h-2.64V4.39h2.33v-.95h-2.33V1.11h2.54V.14h-3.56zM259.99 5.16l.45-1.9c.17-.76.31-1.39.41-1.9h.04c.1.55.23 1.19.41 1.9l.46 1.9h-1.77Zm.3-5.02-1.99 7.74h1.05l.42-1.77H262l.43 1.77h1.05L261.49.14h-1.19ZM274.44 5.57c0 .35-.04.61-.11.81a.7.7 0 0 1-.38.41c-.18.08-.43.12-.76.12h-1.2V1.12h1.2c.32 0 .57.04.76.12s.31.22.38.41c.07.19.11.47.11.82v3.11ZM273.2.14h-2.23v7.74h2.23c.52 0 .95-.08 1.29-.24.33-.16.58-.4.73-.74.16-.34.24-.77.24-1.3V2.43c0-.8-.18-1.38-.54-1.74-.36-.36-.93-.55-1.72-.55M287.39 4.78c-.08-.27-.23-.5-.45-.68-.21-.18-.52-.34-.92-.47l-1-.33c-.22-.07-.38-.15-.48-.24l-.21-.35c-.04-.15-.06-.35-.06-.61 0-.29.03-.52.09-.68l.33-.35c.16-.08.38-.11.67-.11s.51.04.66.12c.15.08.26.21.33.39.07.18.1.43.1.76v.2h.97v-.2c0-.54-.07-.97-.2-1.29-.13-.32-.35-.55-.65-.69-.3-.14-.7-.22-1.21-.22s-.93.07-1.23.2c-.3.14-.52.36-.64.66-.13.3-.2.71-.2 1.23 0 .41.04.75.11 1.02s.21.49.4.67c.19.18.46.32.79.43l1.11.38c.24.08.41.17.53.26l.24.37c.04.15.06.37.06.64 0 .32-.03.56-.1.73l-.35.38c-.17.08-.41.12-.73.12s-.55-.04-.71-.11a.655.655 0 0 1-.36-.37c-.07-.17-.1-.42-.1-.75v-.32h-.98v.32c0 .54.08.96.21 1.28.14.31.36.54.67.68.31.14.73.21 1.27.21s.95-.07 1.26-.21c.31-.14.53-.37.67-.68.14-.31.21-.74.21-1.28 0-.45-.04-.81-.13-1.08" class="logo-cls-1"/></svg>
