<svg xmlns="http://www.w3.org/2000/svg" viewBox="0 0 239.42 70.02"><defs><style>.footer-logo-cls-1{fill:#f7f6f0}</style></defs><path d="M.34 45.5h1v7.54h-1V45.5ZM.1 43.48c0-.41.33-.73.74-.73s.75.31.75.73-.33.73-.75.73-.74-.3-.74-.73M2.94 51.98v-1.11c.65.71 2.01 1.41 3.26 1.41 1.04 0 1.88-.53 1.88-1.25 0-.63-.67-1.12-2.24-1.42-1.91-.36-2.93-.87-2.93-2.06 0-1.41 1.41-2.16 3-2.16 1.21 0 2.28.44 2.93.94v1.01c-1-.73-2.02-1.08-2.93-1.08-1.03 0-1.98.47-1.98 1.28s1.01 1.02 2.46 1.31c1.96.43 2.69 1.17 2.69 2.19.02 1.44-1.37 2.14-2.89 2.14-1.27 0-2.43-.51-3.26-1.18M20.85 49.26c0-1.62-1.31-2.98-2.93-2.98s-2.93 1.35-2.93 2.98 1.3 2.99 2.93 2.99 2.93-1.35 2.93-2.99m-6.82 0c0-2.15 1.69-3.89 3.8-3.89 1.31 0 2.39.7 2.96 1.69v-1.57h1v7.54h-1v-1.57c-.57 1-1.65 1.68-2.96 1.68-2.11 0-3.8-1.75-3.8-3.9M34.08 49.26c0-1.62-1.27-2.97-2.92-2.97s-2.93 1.35-2.93 2.97 1.3 2.99 2.93 2.99 2.92-1.31 2.92-2.99m-6.8-3.76h1v1.54a3.4 3.4 0 0 1 2.96-1.67c2.12 0 3.8 1.76 3.8 3.89s-1.68 3.9-3.8 3.9c-1.3 0-2.38-.68-2.96-1.68v4.55h-1V45.5ZM36.28 45.5h1v1.59c.47-1.18 1.59-1.86 3.19-1.61v1.04c-1.76-.41-3.19.67-3.19 2.75v3.77h-1V45.5ZM47.75 49.26c0-1.64-1.28-2.96-2.92-2.96s-2.9 1.32-2.9 2.96 1.3 2.98 2.9 2.98 2.92-1.34 2.92-2.98m-6.78 0c0-2.14 1.71-3.89 3.86-3.89s3.87 1.78 3.87 3.89-1.71 3.9-3.87 3.9-3.86-1.75-3.86-3.9M49.91 50.03V45.5h1v4.21c0 1.64 1.12 2.52 2.36 2.52 1.47 0 2.56-1.18 2.56-2.89V45.5h1v7.54h-1v-1.45c-.46.83-1.38 1.58-2.72 1.58-1.67 0-3.2-1.15-3.2-3.15M65.06 49.29c0-1.64-1.31-2.99-2.93-2.99s-2.93 1.31-2.93 2.99 1.28 2.96 2.93 2.96 2.93-1.34 2.93-2.96m-6.82 0c0-2.18 1.69-3.9 3.8-3.9 1.31 0 2.39.68 2.96 1.69v-4h1v9.96h-1v-1.57c-.57 1-1.64 1.69-2.96 1.69-2.11 0-3.8-1.76-3.8-3.89M140.65 49.29c0-1.68-1.31-2.99-2.92-2.99s-2.95 1.35-2.95 2.99 1.32 2.96 2.95 2.96 2.92-1.34 2.92-2.96m-5.81 2.19v1.57h-1v-9.96h1v4c.57-1.01 1.66-1.69 2.96-1.69 2.15-.01 3.8 1.72 3.8 3.9s-1.62 3.89-3.8 3.89c-1.31 0-2.39-.7-2.96-1.69M142.84 45.5h1v1.59c.47-1.18 1.59-1.86 3.19-1.61v1.04c-1.76-.41-3.19.67-3.19 2.75v3.77h-1V45.5ZM154.37 49.26c0-1.62-1.31-2.98-2.93-2.98s-2.93 1.35-2.93 2.98 1.29 2.99 2.93 2.99 2.93-1.35 2.93-2.99m-6.82 0c0-2.15 1.69-3.89 3.8-3.89 1.31 0 2.39.7 2.96 1.69v-1.57h1v7.54h-1v-1.57c-.57 1-1.65 1.68-2.96 1.68-2.11 0-3.8-1.75-3.8-3.9M156.93 45.5h1v1.45a3.05 3.05 0 0 1 2.72-1.58c1.68 0 3.2 1.15 3.2 3.15v4.53h-1v-4.21c0-1.64-1.11-2.52-2.36-2.52-1.47 0-2.56 1.18-2.56 2.89v3.84h-1v-7.54ZM171.92 49.29c0-1.64-1.31-2.99-2.93-2.99s-2.93 1.31-2.93 2.99 1.28 2.96 2.93 2.96 2.93-1.34 2.93-2.96m-6.82 0c0-2.18 1.69-3.9 3.8-3.9 1.31 0 2.39.68 2.96 1.69v-4h1v9.96h-1v-1.57c-.57 1-1.64 1.69-2.96 1.69-2.11 0-3.8-1.76-3.8-3.89M6.92 59.67l-2.69 7.52-2.7-7.52H.05v7.8h.78v-7.43l2.65 7.43h1.48l2.68-7.46v7.46h.77v-7.8H6.92zM15.06 64.51c0-1.28-1-2.32-2.28-2.32s-2.27 1.03-2.27 2.32 1.01 2.33 2.27 2.33 2.28-1.05 2.28-2.33m-5.3 0c0-1.67 1.34-3.04 3.02-3.04s3.03 1.39 3.03 3.04-1.34 3.05-3.03 3.05-3.02-1.37-3.02-3.05M16.99 61.57h.78v1.14c.36-.66 1.09-1.24 2.13-1.24 1.31 0 2.51.9 2.51 2.46v3.54h-.78v-3.3c0-1.28-.87-1.97-1.85-1.97-1.15 0-2 .92-2 2.26v3.01H17v-5.9ZM23.83 61.57h.78v1.14c.36-.66 1.09-1.24 2.13-1.24 1.31 0 2.51.9 2.51 2.46v3.54h-.78v-3.3c0-1.28-.87-1.97-1.85-1.97-1.15 0-2 .92-2 2.26v3.01h-.78v-5.9ZM30.8 61.57h.78v5.9h-.78v-5.9Zm-.19-1.58c0-.32.26-.57.58-.57s.59.24.59.57-.26.57-.59.57-.58-.23-.58-.57M33.19 59.67h.78v5.43l3.32-3.53h.96l-2.54 2.67 2.65 3.23h-.93l-2.2-2.71-1.26 1.33v1.38h-.78v-7.8zM41.74 62.18c-1.2 0-2.12.88-2.24 1.98h4.43c-.11-1.1-1-1.98-2.19-1.98m-3.02 2.33c0-1.68 1.35-3.04 3.02-3.04 1.56 0 2.78 1.19 2.96 2.66.04.23.06.47.01.67H39.5c.1 1.21 1.07 2.05 2.24 2.05.82 0 1.58-.41 2-1.06l.74.14c-.49.98-1.58 1.63-2.74 1.63-1.69 0-3.02-1.37-3.02-3.05M45.9 61.57h.78v1.14c.36-.66 1.09-1.24 2.13-1.24 1.31 0 2.5.9 2.5 2.46v3.54h-.78v-3.3c0-1.28-.87-1.97-1.85-1.97-1.15 0-2.01.92-2.01 2.26v3.01h-.78v-5.9ZM52.24 61.57h.81l1.48 5.47 1.35-5.47h1.24l1.33 5.48 1.49-5.48h.81l-1.69 5.9h-1.23l-1.34-5.48-1.33 5.48h-1.24l-1.68-5.9zM64.4 62.18c-1.2 0-2.12.88-2.24 1.98h4.43c-.11-1.1-1-1.98-2.19-1.98m-3.02 2.33c0-1.68 1.35-3.04 3.02-3.04 1.56 0 2.78 1.19 2.96 2.66.04.23.06.47.01.67h-5.21c.1 1.21 1.07 2.05 2.24 2.05.82 0 1.58-.41 2.01-1.06l.74.14c-.49.98-1.58 1.63-2.74 1.63-1.69 0-3.02-1.37-3.02-3.05M68.57 61.57h.78v1.25c.37-.92 1.25-1.46 2.49-1.26v.81c-1.38-.32-2.49.52-2.49 2.15v2.95h-.78v-5.9ZM72.64 61.57h.84l2.04 5.63 2.02-5.63h.84l-2.18 5.9h-1.37l-2.19-5.9zM82.01 62.18c-1.2 0-2.12.88-2.24 1.98h4.43c-.11-1.1-1-1.98-2.19-1.98m-3.02 2.33c0-1.68 1.35-3.04 3.02-3.04 1.56 0 2.78 1.19 2.96 2.66.04.23.06.47.01.67h-5.21c.1 1.21 1.07 2.05 2.24 2.05.82 0 1.58-.41 2.01-1.06l.74.14c-.49.98-1.58 1.63-2.74 1.63-1.69 0-3.02-1.37-3.02-3.05M91.25 60.42h-2.32v-.75h3.1v7.8h-.78v-7.05zM94.83 60.42H92.5v-.75h3.11v7.8h-.78v-7.05zM101.48 62.22c0-1.08-.88-1.94-1.94-1.94s-1.95.86-1.95 1.94.89 1.93 1.95 1.93 1.94-.84 1.94-1.93m-4.57 3.17h.8c.2.72.81 1.46 1.83 1.46 1.45 0 2.18-1.49 2.21-3.11 0-.22.01-.44-.02-.62-.2.97-1.12 1.73-2.27 1.73-1.54-.01-2.64-1.18-2.64-2.61s1.12-2.66 2.72-2.66c1.76 0 2.97 1.46 2.97 3.92s-1.12 4.07-2.96 4.07c-1.46 0-2.37-1.04-2.63-2.17M103.72 63.93h4.04v.71h-4.04zM110.8 60.42h-2.33v-.75h3.11v7.8h-.78v-7.05zM113.01 66.92l3.2-3.51c.45-.49.85-.96.86-1.58.02-.94-.71-1.55-1.64-1.55-1.03 0-1.71.71-1.82 1.72h-.78c.11-1.55 1.24-2.43 2.6-2.43 1.21 0 2.42.74 2.42 2.24 0 .74-.36 1.31-1.06 2.08l-2.56 2.82h3.79v.76h-5v-.55ZM121.35 60.42h-2.33v-.75h3.11v7.8h-.78v-7.05zM123.76 66.29h.83l-.8 2.45h-.6l.57-2.45zM133.8 61.65c0-.82-.88-1.37-1.94-1.37s-1.93.56-1.93 1.37.84 1.46 1.93 1.46 1.94-.62 1.94-1.46m.17 3.63c0-.95-.83-1.6-2.11-1.6s-2.09.66-2.09 1.6c0 1 .97 1.57 2.09 1.57s2.11-.57 2.11-1.57m-5 .03c0-.98.63-1.66 1.56-1.94-.64-.23-1.39-.79-1.39-1.79 0-1.24 1.28-2 2.73-2s2.74.77 2.74 2c0 1-.76 1.56-1.39 1.79.93.28 1.56.96 1.56 1.94 0 1.27-1.18 2.24-2.91 2.24s-2.9-.97-2.9-2.24M141.34 63.57c0-1.82-.89-3.24-2.3-3.24s-2.29 1.43-2.29 3.25.9 3.22 2.29 3.22 2.3-1.42 2.3-3.23m-5.38.01c0-2.33 1.18-4.01 3.07-4.01s3.08 1.68 3.08 4-1.19 3.99-3.08 3.99-3.07-1.65-3.07-3.98M148.63 63.57c0-1.82-.89-3.24-2.3-3.24s-2.29 1.43-2.29 3.25.9 3.22 2.29 3.22 2.3-1.42 2.3-3.23m-5.38.01c0-2.33 1.18-4.01 3.07-4.01s3.08 1.68 3.08 4-1.19 3.99-3.08 3.99-3.07-1.65-3.07-3.98M155.93 63.57c0-1.82-.89-3.24-2.3-3.24s-2.29 1.43-2.29 3.25.9 3.22 2.29 3.22 2.3-1.42 2.3-3.23m-5.38.01c0-2.33 1.18-4.01 3.07-4.01s3.08 1.68 3.08 4-1.19 3.99-3.08 3.99-3.07-1.65-3.07-3.98M164.77 66.74c1.04 0 1.68-.51 1.68-1.48 0-1.05-.79-1.41-1.76-1.41h-2.56v2.9h2.64Zm-.15-3.57c.97 0 1.62-.53 1.62-1.43 0-.84-.58-1.34-1.55-1.34h-2.55v2.76h2.48Zm-3.27-3.5h3.35c1.44 0 2.29.78 2.29 1.97 0 .9-.47 1.56-1.23 1.82.94.26 1.49.87 1.49 1.9 0 1.32-.94 2.11-2.46 2.11h-3.45v-7.8ZM168.55 61.57h.78v1.25c.37-.92 1.25-1.46 2.49-1.26v.81c-1.38-.32-2.49.52-2.49 2.15v2.95h-.78v-5.9ZM172.9 65.11v-3.54h.78v3.3c0 1.28.88 1.97 1.85 1.97 1.15 0 2-.92 2-2.26v-3.01h.78v5.9h-.78v-1.14c-.36.65-1.08 1.24-2.13 1.24-1.3 0-2.51-.9-2.51-2.46M184.97 64.41c0-1.26-1.02-2.24-2.29-2.24s-2.29.97-2.29 2.24 1.05 2.25 2.29 2.25 2.29-.97 2.29-2.25m-5.02 3.48h.78c.29 1 1.27 1.39 2.08 1.39.97 0 2.09-.56 2.12-2.4v-.77c-.44.76-1.29 1.26-2.32 1.26-1.68 0-2.97-1.27-2.97-2.96s1.3-2.95 2.97-2.94c1.02 0 1.87.51 2.32 1.27v-1.17h.78v5.24c0 2.37-1.53 3.22-2.88 3.22-1.23 0-2.55-.66-2.87-2.13M192.35 64.41c0-1.26-1.02-2.24-2.29-2.24s-2.29.97-2.29 2.24 1.05 2.25 2.29 2.25 2.29-.97 2.29-2.25m-5.03 3.48h.78c.29 1 1.27 1.39 2.08 1.39.97 0 2.09-.56 2.12-2.4v-.77c-.44.76-1.29 1.26-2.32 1.26-1.68 0-2.97-1.27-2.97-2.96s1.3-2.95 2.97-2.94c1.02 0 1.87.51 2.32 1.27v-1.17h.78v5.24c0 2.37-1.53 3.22-2.88 3.22-1.23 0-2.55-.66-2.87-2.13M197.4 62.18c-1.2 0-2.12.88-2.24 1.98h4.43c-.11-1.1-1-1.98-2.19-1.98m-3.01 2.33c0-1.68 1.35-3.04 3.02-3.04 1.56 0 2.78 1.19 2.96 2.66.04.23.05.47.01.67h-5.21c.1 1.21 1.07 2.05 2.24 2.05.82 0 1.58-.41 2-1.06l.74.14c-.49.98-1.58 1.63-2.74 1.63-1.69 0-3.02-1.37-3.02-3.05M201.68 66.29h.83l-.81 2.45h-.6l.58-2.45zM210.5 66.74c1.04 0 1.68-.51 1.68-1.48 0-1.05-.79-1.41-1.76-1.41h-2.56v2.9h2.64Zm-.15-3.57c.97 0 1.62-.53 1.62-1.43 0-.84-.58-1.34-1.55-1.34h-2.55v2.76h2.48Zm-3.27-3.5h3.35c1.44 0 2.29.78 2.29 1.97 0 .9-.47 1.56-1.23 1.82.94.26 1.49.87 1.49 1.9 0 1.32-.94 2.11-2.46 2.11h-3.45v-7.8ZM217.02 62.18c-1.2 0-2.12.88-2.24 1.98h4.43c-.11-1.1-1-1.98-2.19-1.98M214 64.51c0-1.68 1.35-3.04 3.02-3.04 1.56 0 2.78 1.19 2.96 2.66.04.23.05.47.01.67h-5.21c.1 1.21 1.07 2.05 2.24 2.05.82 0 1.58-.41 2-1.06l.74.14c-.49.98-1.58 1.63-2.74 1.63-1.69 0-3.02-1.37-3.02-3.05M221.37 59.67h.78v7.8h-.78zM228.86 64.41c0-1.26-1.02-2.24-2.29-2.24s-2.29.97-2.29 2.24 1.05 2.25 2.29 2.25 2.29-.97 2.29-2.25m-5.03 3.48h.78c.29 1 1.27 1.39 2.08 1.39.97 0 2.09-.56 2.12-2.4v-.77c-.44.76-1.29 1.26-2.32 1.26-1.68 0-2.97-1.27-2.97-2.96s1.3-2.95 2.97-2.94c1.02 0 1.87.51 2.32 1.27v-1.17h.78v5.24c0 2.37-1.53 3.22-2.88 3.22-1.23 0-2.55-.66-2.87-2.13M231.19 61.57h.78v5.9h-.78v-5.9Zm-.18-1.58c0-.32.26-.57.58-.57s.59.24.59.57-.26.57-.59.57-.58-.23-.58-.57M237.06 60.03c0-.31.23-.55.55-.55s.55.23.55.55-.25.55-.55.55-.55-.23-.55-.55m-2.48 0c0-.31.23-.55.55-.55s.55.23.55.55-.23.55-.55.55-.55-.23-.55-.55m1.84 2.15c-1.2 0-2.12.88-2.24 1.98h4.43c-.11-1.1-1-1.98-2.19-1.98m-3.02 2.33c0-1.68 1.35-3.04 3.02-3.04 1.56 0 2.78 1.19 2.96 2.66.04.23.05.47.01.67h-5.21c.1 1.21 1.07 2.05 2.24 2.05.82 0 1.58-.41 2-1.06l.74.14c-.49.98-1.58 1.63-2.74 1.63-1.69 0-3.02-1.37-3.02-3.05M119.46 49.08c0-.37.09-.71.28-1.03.19-.32.44-.57.75-.77.32-.2.66-.29 1.03-.29s.71.1 1.03.29c.32.19.57.45.76.77.19.32.28.66.28 1.02s-.1.7-.28 1.02c-.19.32-.44.58-.76.77-.32.19-.66.28-1.03.28s-.71-.09-1.03-.28c-.32-.19-.57-.44-.75-.77a2.06 2.06 0 0 1-.28-1.02m-1.97.01c0 .72.16 1.39.49 1.99.33.61.78 1.09 1.36 1.45.58.36 1.24.54 1.97.54.43 0 .82-.07 1.18-.2s.67-.32.96-.56v.64h2.12V42.72h-2.12v3.15c-.28-.25-.6-.45-.96-.58-.35-.14-.75-.21-1.18-.22-.71-.01-1.36.16-1.94.52-.58.36-1.04.84-1.38 1.45-.34.61-.5 1.29-.5 2.03m10.6 3.99c-.37 0-.69-.13-.95-.39s-.39-.57-.39-.94.13-.69.39-.95.58-.39.95-.39.69.13.95.39.39.58.39.95-.13.68-.39.94c-.26.26-.58.39-.95.39m-15.42-1.93c.37 0 .71-.09 1.01-.28.31-.19.55-.44.73-.76.18-.32.27-.66.27-1.03s-.09-.71-.27-1.03a1.95 1.95 0 0 0-.73-.75c-.31-.18-.64-.28-1.01-.28s-.71.09-1.01.28c-.31.19-.55.44-.73.75-.18.31-.27.65-.27 1.02s.09.71.27 1.03c.18.32.42.57.73.76.31.19.64.28 1.01.28m0 1.94c-.72 0-1.38-.18-1.99-.55-.61-.36-1.09-.85-1.45-1.47-.36-.61-.54-1.28-.54-1.99s.18-1.39.54-1.99c.36-.61.85-1.09 1.45-1.45.61-.36 1.27-.54 1.99-.54s1.39.18 1.99.54c.61.36 1.09.85 1.45 1.46.36.61.54 1.28.54 1.99s-.18 1.39-.54 2c-.36.61-.84 1.1-1.45 1.46-.61.36-1.27.54-1.99.54m-8.76-1.93c.37 0 .71-.09 1.01-.28.31-.19.55-.44.73-.76.18-.32.27-.66.27-1.03s-.09-.71-.27-1.03a1.95 1.95 0 0 0-.73-.75c-.31-.18-.65-.28-1.01-.28s-.71.09-1.01.28c-.31.19-.55.44-.73.75-.18.31-.27.65-.27 1.02s.09.71.27 1.03c.18.32.42.57.73.76.31.19.65.28 1.01.28m0 1.94c-.72 0-1.38-.18-1.99-.55-.61-.36-1.09-.85-1.45-1.47-.36-.61-.54-1.28-.54-1.99s.18-1.39.54-1.99c.36-.61.84-1.09 1.45-1.45.61-.36 1.27-.54 1.99-.54s1.38.18 1.99.54c.61.36 1.09.85 1.45 1.46.36.61.54 1.28.54 1.99s-.18 1.39-.54 2c-.36.61-.84 1.1-1.45 1.46-.61.36-1.27.54-1.99.54m-8.34-6.03h-1.24V45.2h1.24v-.29c0-.75.22-1.33.66-1.73.44-.4.99-.64 1.67-.71.67-.07 1.34 0 2 .22v1.56c-.6-.18-1.14-.24-1.6-.17-.46.07-.69.35-.69.83v.29h2.15v1.83H97.7v5.91h-2.07l-.04-5.91Zm-8.28 1.23c-.08-.23-.2-.45-.37-.65a1.886 1.886 0 0 0-1.49-.66c-.32 0-.61.06-.87.18s-.47.28-.64.48c-.17.2-.3.42-.37.65h3.75Zm-1.85 4.8c-.73 0-1.4-.18-2.02-.54-.61-.36-1.09-.85-1.45-1.46-.35-.61-.52-1.28-.52-1.99s.18-1.4.54-2.01c.36-.61.85-1.1 1.46-1.45.61-.35 1.27-.53 1.99-.53.62 0 1.21.14 1.76.42.55.28 1.01.66 1.39 1.14.37.48.62 1.02.75 1.63.13.56.13 1.09.01 1.61h-5.81c.08.29.21.54.39.74.19.2.41.35.66.44s.54.15.84.15c.33 0 .66-.06.99-.17.33-.11.61-.27.84-.49l1.84.53c-.3.6-.8 1.09-1.5 1.45-.7.36-1.42.55-2.16.55m-8.89-1.93c.37 0 .71-.09 1.03-.28.32-.19.57-.44.75-.77.18-.32.28-.66.28-1.02s-.09-.71-.28-1.03c-.19-.32-.44-.57-.75-.77-.32-.2-.66-.29-1.03-.29s-.71.1-1.03.29c-.32.19-.57.45-.76.77-.19.32-.29.66-.29 1.02s.1.7.29 1.02c.19.32.44.58.76.77.32.19.66.28 1.03.28m.2 1.92c-.43 0-.82-.07-1.18-.2a3.31 3.31 0 0 1-.96-.56v.64h-2.12V42.72h2.12v3.15c.28-.25.6-.45.96-.58.36-.14.75-.21 1.18-.22.71-.01 1.36.16 1.94.52.58.36 1.04.84 1.38 1.45.34.61.5 1.29.5 2.03s-.16 1.39-.49 1.99c-.33.61-.78 1.09-1.36 1.45-.58.36-1.24.54-1.97.54M22.08 15.75H22c-1.59-6.2-4.51-8.01-7.41-8.5v25.84c-2.57 0-4.65.11-7.11.49V7.26c-2.88.49-5.82 2.3-7.4 8.49H0V6.76h22.08v8.99ZM35.06 26.85V15.31c0-1.43-.34-2.83-2.04-2.83-2.72 0-4.61 4.46-4.61 10.98 0 4.42 1.06 7.16 3.4 7.16 1.89 0 2.87-1.95 3.25-3.78m6.73 1.13c0 2.7.26 3.58 1.51 4.02-.87 1.07-2.57 1.59-4.16 1.59-3.81 0-4.07-2.19-4.08-5.49-.85 2.73-2.72 5.49-6.65 5.49-4.42 0-7.48-3.54-7.48-9.23 0-7.6 5.63-12.26 11.45-12.26 1.78 0 3.06.43 4.09 1.21 1.77-.15 3.65-.58 5.32-1.21v15.88ZM44.59 29.44c0-1.91 1.44-3.1 2.87-3.1s2.61 1.15 2.61 2.9c0 1.15-.53 2.47-1.93 3.42.68.2 1.4.28 2.04.28 2.57 0 4.65-1.31 4.65-3.86 0-4.73-9.98-4.26-9.98-10.78 0-4.18 3.85-6.21 8.73-6.21 4.16 0 7.94 1.07 7.94 4.14 0 1.91-1.44 3.1-2.87 3.1s-2.61-1.15-2.61-2.91c0-1.15.53-2.47 1.93-3.42-.6-.16-1.32-.28-2.08-.28-2.16 0-4.2 1.03-4.2 3.1 0 4.5 10.47 4.5 10.47 11.22 0 4.34-4.76 6.53-9.64 6.53-4.16 0-7.94-1.07-7.94-4.14M64.51 27.65V12.81h-1.44v-.4c2.84 0 6.62-3.1 8.01-6.37h.15v6.37h3.21v.4h-3.21v15.16c0 2.7.76 3.22 1.85 3.42-1.1 1.67-2.91 2.19-4.5 2.19-3.97 0-4.08-2.91-4.08-5.93" class="footer-logo-cls-1"/><path d="M87.61 22.84c0-6.25-.79-10.43-3.4-10.43s-3.4 4.18-3.4 10.43.79 10.43 3.4 10.43 3.4-4.22 3.4-10.43m-14.29 0c0-6.45 4.27-10.74 10.89-10.74S95.1 16.4 95.1 22.84s-4.27 10.74-10.89 10.74-10.89-4.3-10.89-10.74M116.99 27.97c0 2.71.26 3.58 1.51 4.02-.87 1.07-2.57 1.59-4.16 1.59-3.97 0-4.08-2.39-4.08-5.93v-.32c-2.07 4.51-5.02 6.25-7.79 6.25-3.67 0-5.29-2.83-5.29-6.09V13.36c2.15 0 4.61-.48 6.73-1.27v15.2c0 1.83 1.02 2.82 2.38 2.82s3.05-1.17 3.97-3.35V13.32c2.15 0 4.61-.48 6.73-1.27v15.92ZM8.8 2.14c0 .13-.01.24-.04.31s-.08.13-.15.16c-.07.03-.17.05-.29.05h-.46V.43h.46c.12 0 .22.01.29.05.07.03.12.08.15.16.03.07.04.18.04.31v1.19ZM8.33.06h-.85v2.97h.85c.2 0 .37-.03.49-.09.13-.06.22-.15.28-.28.06-.13.09-.29.09-.5V.93c0-.31-.07-.53-.21-.67-.14-.14-.36-.21-.66-.21M12.64 1.98l.17-.73c.07-.29.12-.53.16-.73h.02c.04.21.09.45.16.73l.18.73h-.68Zm.12-1.92-.77 2.97h.4l.16-.68h.85l.16.68h.4L13.21.06h-.45ZM17.89.06l-.38.97-.15.42h-.01c-.05-.13-.1-.27-.15-.42l-.38-.97h-.42l.76 1.82v1.15h.39V1.89l.76-1.83h-.42ZM21.55.06h-.39v2.96h1.39v-.37h-1V.06zM25.48.06h.39v2.97h-.39zM30.3 2.19c0 .13-.01.24-.04.31s-.08.13-.14.16c-.07.03-.16.05-.29.05s-.22-.02-.29-.05c-.07-.03-.11-.08-.14-.16a.862.862 0 0 1-.04-.31V.89c0-.13.01-.24.04-.31s.07-.13.14-.16.16-.05.28-.05.22.01.28.05c.07.03.11.08.15.16.03.07.04.18.04.31v.12h.39V.89c0-.32-.07-.55-.2-.68-.13-.14-.35-.21-.66-.21-.2 0-.36.03-.49.09-.12.06-.22.16-.28.29-.06.13-.09.3-.09.51v1.3c0 .32.07.54.2.68s.35.21.66.21c.2 0 .37-.03.49-.09s.22-.16.28-.28.09-.3.09-.51v-.15h-.39v.15ZM33.72.06h.39v2.97h-.39zM38.58 2.19c0 .14-.01.24-.04.31s-.08.12-.15.15c-.07.03-.17.05-.3.05s-.23-.02-.3-.05a.276.276 0 0 1-.15-.15.862.862 0 0 1-.04-.31V.89c0-.14.01-.24.04-.31s.08-.12.15-.16c.07-.03.17-.05.3-.05s.23.01.3.05c.07.03.12.08.15.16.03.07.04.18.04.31v1.3ZM38.09 0c-.21 0-.38.03-.51.09s-.22.15-.28.28c-.06.13-.09.3-.09.52v1.3c0 .32.07.55.2.68.13.14.36.2.67.2.21 0 .38-.03.51-.09s.22-.15.28-.28c.06-.13.09-.3.09-.51V.89c0-.32-.07-.55-.2-.68-.13-.14-.35-.21-.67-.21M43.38 2.18c0 .14-.01.24-.04.31s-.08.12-.15.15c-.07.03-.17.04-.29.04s-.22-.01-.29-.04a.259.259 0 0 1-.14-.15.862.862 0 0 1-.04-.31V.06h-.39v2.13c0 .32.07.54.2.68s.35.21.66.21c.21 0 .37-.03.5-.09s.22-.16.28-.29c.06-.13.09-.3.09-.51V.06h-.39v2.13ZM48.21 1.57c-.08-.07-.2-.13-.35-.18l-.38-.13a.591.591 0 0 1-.18-.09.222.222 0 0 1-.08-.13A1.34 1.34 0 0 1 47.2.8c0-.11.01-.2.04-.26.02-.06.07-.11.13-.14.06-.03.15-.04.26-.04s.19.01.25.04.1.08.13.15c.02.07.04.17.04.29v.08h.37V.84c0-.21-.02-.37-.08-.5a.507.507 0 0 0-.25-.27c-.11-.06-.27-.08-.47-.08s-.35.03-.47.08a.47.47 0 0 0-.25.25c-.05.12-.07.27-.07.47 0 .16.01.29.04.39.03.1.08.19.15.26.07.07.17.12.3.17l.43.14c.09.03.16.06.2.1.05.03.08.08.09.14.02.06.02.14.02.25 0 .12-.01.21-.04.28-.02.07-.07.11-.13.14-.06.03-.16.05-.28.05s-.21-.01-.27-.04a.273.273 0 0 1-.14-.14.746.746 0 0 1-.04-.29v-.12h-.37v.12c0 .21.03.37.08.49s.14.21.26.26c.12.05.28.08.49.08s.37-.03.48-.08c.12-.05.2-.14.26-.26.05-.12.08-.28.08-.49 0-.17-.02-.31-.05-.42a.563.563 0 0 0-.17-.26M54.79 3.02h.39V1.7h.92v-.36h-.92V.43h1V.06h-1.39v2.96zM59.55.42h.41c.13 0 .23.01.29.04.06.03.11.08.14.15.03.07.04.17.04.31s-.01.23-.04.31c-.03.07-.07.12-.13.15-.07.03-.16.04-.28.04h-.43v-1Zm.91 1.28c.12-.06.21-.15.27-.28.06-.12.08-.29.08-.5s-.03-.39-.08-.51a.51.51 0 0 0-.27-.27c-.12-.06-.29-.08-.51-.08h-.79v2.97h.39V1.8h.42l.58 1.23h.44l-.62-1.28s.07-.02.1-.04M64.29 1.68h.9v-.36h-.9v-.9h.98V.06H63.9v2.96h1.4v-.37h-1.01v-.97zM69.62 1.57c-.08-.07-.2-.13-.35-.18l-.38-.13a.745.745 0 0 1-.18-.09.222.222 0 0 1-.08-.13 1.34 1.34 0 0 1-.02-.24c0-.11.01-.2.04-.26.02-.06.07-.11.13-.14.06-.03.14-.04.25-.04s.19.01.25.04.1.08.13.15c.03.07.04.17.04.29v.08h.37V.84c0-.21-.03-.37-.08-.5-.05-.12-.13-.21-.25-.27S69.21 0 69.02 0s-.35.03-.47.08c-.11.05-.2.14-.25.25-.05.12-.08.27-.08.47 0 .16.01.29.04.39.03.1.08.19.15.26.07.07.18.12.3.17l.43.14c.09.03.16.06.2.1.04.03.07.08.09.14.02.06.02.14.02.25 0 .12-.01.21-.04.28-.02.07-.07.11-.13.14-.06.03-.16.05-.28.05s-.21-.01-.27-.04a.273.273 0 0 1-.14-.14.746.746 0 0 1-.04-.29v-.12h-.37v.12c0 .21.03.37.08.49s.14.21.26.26c.12.05.28.08.49.08s.36-.03.48-.08.2-.14.26-.26c.05-.12.08-.28.08-.49 0-.17-.02-.31-.05-.42a.563.563 0 0 0-.17-.26M74.15 1.31h-.91V.06h-.39v2.96h.39V1.68h.91v1.34h.39V.06h-.39v1.25zM82.36 1.57c-.08-.07-.2-.13-.35-.18l-.38-.13a.745.745 0 0 1-.18-.09.222.222 0 0 1-.08-.13 1.34 1.34 0 0 1-.02-.24c0-.11.01-.2.04-.26.02-.06.07-.11.13-.14.06-.03.14-.04.25-.04s.19.01.25.04.1.08.13.15c.03.07.04.17.04.29v.08h.37V.84c0-.21-.03-.37-.08-.5-.05-.12-.13-.21-.25-.27S81.95 0 81.75 0s-.35.03-.47.08c-.11.05-.2.14-.25.25-.05.12-.08.27-.08.47 0 .16.01.29.04.39.03.1.08.19.15.26.07.07.18.12.3.17l.43.14c.09.03.16.06.2.1.04.03.07.08.09.14.02.06.02.14.02.25 0 .12-.01.21-.04.28-.02.07-.07.11-.13.14-.06.03-.16.05-.28.05s-.21-.01-.27-.04a.273.273 0 0 1-.14-.14.746.746 0 0 1-.04-.29v-.12h-.37v.12c0 .21.03.37.08.49s.14.21.26.26c.12.05.28.08.49.08s.36-.03.48-.08.2-.14.26-.26c.05-.12.08-.28.08-.49 0-.17-.02-.31-.05-.42a.563.563 0 0 0-.17-.26M86.79 1.3c-.03.08-.07.13-.14.16a.69.69 0 0 1-.28.04h-.39V.43h.38c.13 0 .22.01.29.04.06.03.11.08.14.16.03.07.04.19.04.33s-.01.26-.04.33m.07-1.15c-.12-.06-.29-.09-.51-.09h-.76v2.97h.39V1.88h.38c.21 0 .38-.03.5-.09s.21-.16.27-.29c.06-.13.08-.31.08-.54s-.03-.4-.08-.54c-.06-.13-.14-.23-.27-.28M90.57.42h.41c.13 0 .23.01.29.04.07.03.11.08.14.15.03.07.04.17.04.31s-.01.23-.04.31c-.03.07-.07.12-.13.15a.69.69 0 0 1-.28.04h-.43v-1Zm.91 1.28c.12-.06.21-.15.27-.28.06-.12.08-.29.08-.5s-.03-.39-.08-.51a.51.51 0 0 0-.27-.27c-.12-.06-.29-.08-.51-.08h-.79v2.97h.39V1.8h.42l.58 1.23h.44l-.62-1.28s.07-.02.1-.04M95.32 1.68h.89v-.36h-.89v-.9h.97V.06h-1.36v2.96h1.4v-.37h-1.01v-.97zM99.71 1.98l.17-.73c.07-.29.12-.53.16-.73h.02c.04.21.09.45.16.73l.18.73h-.68Zm.11-1.92-.76 2.97h.4l.16-.68h.85l.16.68h.4l-.76-2.97h-.46ZM105.25 2.14c0 .13-.01.24-.04.31s-.08.13-.15.16c-.07.03-.17.05-.29.05h-.46V.43h.46c.12 0 .22.01.29.05.07.03.12.08.15.16.03.07.04.18.04.31v1.19Zm-.48-2.08h-.85v2.97h.85c.2 0 .37-.03.49-.09.13-.06.22-.15.28-.28.06-.13.09-.29.09-.5V.93c0-.31-.07-.53-.21-.67-.14-.14-.36-.21-.66-.21M110.21 1.83c-.03-.1-.09-.19-.17-.26s-.2-.13-.35-.18l-.38-.13a.85.85 0 0 1-.19-.09.222.222 0 0 1-.08-.13c-.02-.06-.02-.13-.02-.24 0-.11.01-.2.04-.26s.07-.11.13-.14c.06-.03.15-.04.26-.04s.19.01.25.04.1.08.13.15c.03.07.04.17.04.29v.08h.37V.84c0-.21-.03-.37-.08-.49a.507.507 0 0 0-.25-.27c-.11-.06-.27-.08-.47-.08s-.36.03-.47.08c-.11.05-.2.14-.25.25-.05.12-.07.27-.07.47 0 .16.01.29.04.39s.08.19.15.26c.07.07.18.12.3.16l.43.14c.09.03.16.06.2.1.04.03.08.08.09.14.02.06.02.14.02.25 0 .12-.01.21-.04.28-.03.07-.07.11-.13.14-.06.03-.16.05-.28.05s-.21-.01-.27-.04a.316.316 0 0 1-.14-.14.746.746 0 0 1-.04-.29v-.12h-.37v.12c0 .21.03.37.08.49s.14.21.26.26c.12.05.28.08.49.08s.37-.03.48-.08c.12-.05.2-.14.26-.26.05-.12.08-.28.08-.49 0-.17-.02-.31-.05-.42" class="footer-logo-cls-1"/></svg>
